<svg width="6" height="7" viewBox="0 0 6 7" fill="none" xmlns="http://www.w3.org/2000/svg">
<path d="M4.476 1.827C4.35829 1.68279 4.20823 1.56836 4.038 1.493C3.84853 1.41209 3.64397 1.37254 3.43799 1.377C3.22409 1.37459 3.01215 1.41797 2.8164 1.5042C2.62064 1.59044 2.44559 1.71755 2.303 1.877C2.15698 2.04124 2.04393 2.23204 1.97001 2.439C1.80731 2.89698 1.80731 3.39702 1.97001 3.855C2.04397 4.05987 2.15555 4.24911 2.299 4.413C2.43517 4.56904 2.60285 4.69446 2.791 4.781C2.98171 4.86961 3.18972 4.9147 3.4 4.913C3.62891 4.91784 3.85532 4.86451 4.058 4.758C4.24971 4.65511 4.41265 4.50592 4.532 4.324L5.54 5.076C5.3175 5.3933 5.01154 5.64284 4.656 5.79701C4.30942 5.95002 3.93485 6.02936 3.556 6.03C3.15159 6.03446 2.74961 5.96674 2.36899 5.83C2.02056 5.70362 1.70169 5.50725 1.432 5.253C1.16392 4.99604 0.953305 4.68522 0.814 4.341C0.520659 3.57203 0.520659 2.72198 0.814 1.953C0.953322 1.60908 1.16395 1.29859 1.432 1.042C1.70132 0.787026 2.02028 0.590274 2.36899 0.464005C2.74961 0.327271 3.15159 0.259539 3.556 0.264001C3.71822 0.264592 3.8801 0.27864 4.04 0.306001C4.21077 0.334096 4.37829 0.379327 4.54 0.441003C4.70578 0.504825 4.86325 0.588431 5.00899 0.690003C5.16053 0.796011 5.29537 0.924093 5.409 1.07L4.476 1.827Z" fill="white"/>
</svg>
