<svg width="3" height="3" viewBox="0 0 3 3" fill="none" xmlns="http://www.w3.org/2000/svg">
<path d="M1.81397 0.721001C1.59894 0.721001 1.38874 0.784781 1.20997 0.904267C1.03119 1.02375 0.891879 1.19358 0.809636 1.39226C0.727393 1.59094 0.705906 1.80955 0.74793 2.02043C0.789953 2.23132 0.893601 2.425 1.04572 2.57698C1.19784 2.72896 1.39162 2.83241 1.60254 2.87424C1.81347 2.91607 2.03205 2.8944 2.23066 2.81197C2.42926 2.72955 2.59895 2.59007 2.71827 2.41118C2.83759 2.23229 2.90117 2.02203 2.90098 1.807C2.90098 1.6643 2.87285 1.523 2.81821 1.39117C2.76357 1.25935 2.68351 1.13958 2.58255 1.03873C2.4816 0.93787 2.36177 0.857901 2.22989 0.803383C2.09802 0.748866 1.95667 0.72087 1.81397 0.721001ZM1.81397 2.383C1.70001 2.3832 1.58857 2.34959 1.49372 2.28642C1.39886 2.22324 1.32485 2.13336 1.2811 2.02812C1.23735 1.92289 1.22582 1.80704 1.24793 1.69524C1.27004 1.58345 1.32482 1.48072 1.40534 1.40006C1.48585 1.31941 1.58847 1.26445 1.70023 1.24214C1.81199 1.21984 1.92787 1.23118 2.03318 1.27475C2.13849 1.31832 2.22851 1.39215 2.29184 1.48689C2.35518 1.58164 2.38898 1.69304 2.38898 1.807C2.38872 1.95951 2.32809 2.10572 2.22034 2.21365C2.11259 2.32159 1.96648 2.38248 1.81397 2.383Z" fill="white"/>
</svg>
