<svg width="4" height="4" viewBox="0 0 4 4" fill="none" xmlns="http://www.w3.org/2000/svg">
<path d="M3.50399 2.17499C3.50379 2.43977 3.42509 2.69856 3.27784 2.91862C3.13059 3.13869 2.92139 3.31017 2.67671 3.41136C2.43202 3.51255 2.16282 3.53892 1.90315 3.48714C1.64347 3.43536 1.40498 3.30776 1.21781 3.12045C1.03065 2.93315 0.903232 2.69456 0.851648 2.43484C0.800063 2.17513 0.826627 1.90596 0.928002 1.66135C1.02938 1.41673 1.20101 1.20768 1.42118 1.06059C1.64136 0.913506 1.9002 0.834992 2.16499 0.834991C2.34091 0.834991 2.51512 0.869658 2.67764 0.937012C2.84016 1.00437 2.98781 1.10308 3.11216 1.22752C3.23651 1.35197 3.33512 1.49971 3.40235 1.66228C3.46958 1.82485 3.50412 1.99906 3.50399 2.17499Z" fill="white"/>
</svg>
