<svg width="6" height="8" viewBox="0 0 6 8" fill="none" xmlns="http://www.w3.org/2000/svg">
<path d="M0.621999 2.109C0.614986 1.7918 0.683537 1.47748 0.821996 1.192C0.951251 0.934893 1.1381 0.711086 1.368 0.538001C1.61095 0.357788 1.88577 0.225126 2.178 0.147003C2.82408 -0.0249835 3.50392 -0.0249835 4.15 0.147003C4.43911 0.225254 4.71064 0.35796 4.95 0.538001C5.19178 0.720577 5.38611 0.9586 5.51664 1.23201C5.64716 1.50542 5.71006 1.8062 5.7 2.109C5.71083 2.49075 5.59165 2.86485 5.362 3.17C5.12111 3.47367 4.78863 3.69147 4.41401 3.791V3.813C4.83199 3.89922 5.20497 4.13299 5.46479 4.47157C5.7246 4.81016 5.85389 5.23094 5.829 5.657C5.83608 5.99153 5.76051 6.32266 5.609 6.621C5.46787 6.89377 5.26602 7.13052 5.019 7.313C4.76243 7.50041 4.47414 7.63997 4.168 7.725C3.50896 7.9116 2.81104 7.9116 2.152 7.725C1.84562 7.63978 1.55704 7.50023 1.29999 7.313C1.05316 7.13059 0.851639 6.89381 0.711004 6.621C0.559493 6.32266 0.483926 5.99153 0.491003 5.657C0.466112 5.23094 0.595384 4.81016 0.855199 4.47157C1.11501 4.13299 1.48801 3.89922 1.906 3.813V3.791C1.53101 3.69167 1.19816 3.47385 0.957006 3.17C0.728854 2.86424 0.610787 2.49033 0.621999 2.109ZM2.1 5.431C2.098 5.55775 2.1228 5.68348 2.17278 5.79998C2.22276 5.91647 2.29679 6.0211 2.39 6.107C2.60699 6.28659 2.87984 6.38486 3.1615 6.38486C3.44317 6.38486 3.71602 6.28659 3.933 6.107C4.02622 6.0211 4.10024 5.91647 4.15021 5.79998C4.20019 5.68348 4.22499 5.55775 4.223 5.431C4.22557 5.30284 4.20107 5.17559 4.1511 5.05756C4.10113 4.93952 4.02681 4.83335 3.933 4.746C3.71635 4.56568 3.44338 4.46694 3.1615 4.46694C2.87963 4.46694 2.60666 4.56568 2.39 4.746C2.29689 4.83373 2.22323 4.94004 2.17379 5.05804C2.12435 5.17603 2.10024 5.30309 2.103 5.431H2.1ZM2.22899 2.331C2.22725 2.44346 2.24924 2.55502 2.29352 2.6584C2.33781 2.76179 2.40339 2.85467 2.486 2.931C2.67519 3.08998 2.91439 3.17714 3.1615 3.17714C3.40862 3.17714 3.64781 3.08998 3.837 2.931C3.9196 2.85467 3.98519 2.76179 4.02947 2.6584C4.07375 2.55502 4.09574 2.44346 4.094 2.331C4.09501 2.22027 4.07264 2.11057 4.02836 2.00907C3.98407 1.90758 3.91886 1.81657 3.837 1.742C3.64807 1.58247 3.40878 1.49494 3.1615 1.49494C2.91423 1.49494 2.67493 1.58247 2.486 1.742C2.40412 1.81768 2.33916 1.9098 2.29539 2.01234C2.25161 2.11489 2.23001 2.22552 2.232 2.337L2.22899 2.331Z" fill="white"/>
</svg>
