<svg width="6" height="9" viewBox="0 0 6 9" fill="none" xmlns="http://www.w3.org/2000/svg">
<path d="M5.636 1.708H2.62199L2.59 2.876C2.80876 2.81223 3.03625 2.78355 3.26399 2.79101C3.62513 2.78737 3.98425 2.84518 4.32599 2.962C4.63444 3.06909 4.91713 3.23939 5.15599 3.462C5.39113 3.68466 5.57594 3.95504 5.698 4.255C5.83012 4.58766 5.89537 4.94311 5.89 5.301C5.89655 5.69422 5.82235 6.08461 5.672 6.44801C5.5328 6.77179 5.32581 7.06197 5.06499 7.299C4.79891 7.53641 4.48723 7.71707 4.14899 7.82999C3.77771 7.95401 3.38842 8.01552 2.99699 8.012C2.40874 8.03262 1.82949 7.86326 1.345 7.529C0.876979 7.16798 0.554068 6.65097 0.434998 6.072L2.118 5.686C2.15089 5.93929 2.2724 6.17275 2.461 6.34499C2.65324 6.5159 2.90394 6.60616 3.161 6.59701C3.31243 6.60428 3.46368 6.57942 3.60483 6.5241C3.74598 6.46878 3.87384 6.38424 3.98 6.27601C4.08208 6.16695 4.16165 6.03883 4.21416 5.89898C4.26666 5.75913 4.29108 5.6103 4.286 5.46101C4.2948 5.24502 4.24097 5.03109 4.131 4.84499C4.02836 4.68511 3.88832 4.55264 3.72299 4.45901C3.54886 4.35985 3.35862 4.29214 3.161 4.259C2.95559 4.22321 2.7475 4.20514 2.539 4.20499C2.27059 4.20528 2.00278 4.2304 1.739 4.28001C1.4755 4.3278 1.21581 4.39464 0.96199 4.48L1.04799 0.288002H5.636V1.708Z" fill="white"/>
</svg>
