<svg width="6" height="8" viewBox="0 0 6 8" fill="none" xmlns="http://www.w3.org/2000/svg">
<path d="M3.071 5.089C2.985 5.11 2.89899 5.128 2.81299 5.142C2.72474 5.1566 2.63544 5.16396 2.54599 5.164C2.21068 5.16823 1.8782 5.10214 1.56999 4.97C1.28645 4.84863 1.03109 4.66988 0.819995 4.445C0.608586 4.21695 0.444736 3.94907 0.338 3.657C0.221864 3.34689 0.16357 3.01813 0.166003 2.687C0.159632 2.33225 0.229548 1.98026 0.37102 1.65488C0.512493 1.32949 0.722211 1.0383 0.985995 0.801003C1.24836 0.567064 1.55417 0.386984 1.886 0.271004C2.60615 0.0203627 3.38986 0.0203627 4.11 0.271004C4.44196 0.386722 4.7478 0.566831 5.01 0.801003C5.27378 1.0383 5.4835 1.32949 5.62497 1.65488C5.76644 1.98026 5.83636 2.33225 5.82999 2.687C5.8322 2.93733 5.80706 3.18714 5.75499 3.432C5.7066 3.64997 5.63969 3.86341 5.555 4.07C5.47365 4.2687 5.37669 4.46064 5.265 4.64401C5.154 4.82501 5.03799 5.013 4.917 5.206L3.25499 7.806H1.29199L3.071 5.089ZM1.771 2.752C1.76628 2.90932 1.79374 3.06594 1.85169 3.21227C1.90964 3.35861 1.99684 3.49157 2.10799 3.603C2.35112 3.82121 2.66631 3.9419 2.993 3.9419C3.31969 3.9419 3.63486 3.82121 3.87799 3.603C4.09368 3.37252 4.21369 3.06866 4.21369 2.753C4.21369 2.43734 4.09368 2.13348 3.87799 1.903C3.63486 1.6848 3.31969 1.5641 2.993 1.5641C2.66631 1.5641 2.35112 1.6848 2.10799 1.903C1.99758 2.01442 1.91103 2.14716 1.85361 2.29313C1.79619 2.43909 1.7691 2.59522 1.77399 2.752H1.771Z" fill="white"/>
</svg>
