<svg width="8" height="7" viewBox="0 0 8 7" fill="none" xmlns="http://www.w3.org/2000/svg">
<path d="M0.851 3.909C0.84534 3.48048 0.924169 3.05504 1.083 2.65699C1.22873 2.29621 1.44924 1.9704 1.73 1.701C2.01352 1.43387 2.34874 1.22764 2.715 1.095C3.52059 0.812349 4.3984 0.812349 5.204 1.095C5.57008 1.2274 5.90501 1.43367 6.18799 1.701C6.46908 1.97013 6.68964 2.29601 6.83499 2.65699C7.14404 3.4634 7.14404 4.35559 6.83499 5.162C6.68937 5.52284 6.46884 5.84868 6.18799 6.118C5.90501 6.38533 5.57008 6.5916 5.204 6.724C4.39817 7.0053 3.52082 7.0053 2.715 6.724C2.34874 6.59136 2.01352 6.38513 1.73 6.118C1.44947 5.8484 1.229 5.52264 1.083 5.162C0.92409 4.76363 0.84526 4.33785 0.851 3.909ZM2.17 3.909C2.16692 4.16289 2.20959 4.41524 2.29599 4.654C2.3752 4.87179 2.49842 5.07093 2.65799 5.239C2.8165 5.40619 3.00876 5.53777 3.222 5.625C3.69552 5.8103 4.22148 5.8103 4.69499 5.625C4.90883 5.5378 5.10175 5.40624 5.261 5.239C5.42028 5.0707 5.54347 4.87163 5.623 4.654C5.79098 4.17325 5.79098 3.64974 5.623 3.169C5.54408 2.94958 5.42086 2.74876 5.261 2.579C5.10123 2.41238 4.90845 2.28091 4.69499 2.193C4.22124 2.00897 3.69576 2.00897 3.222 2.193C3.00915 2.28094 2.81703 2.41243 2.65799 2.579C2.4977 2.74842 2.37442 2.94935 2.29599 3.169C2.21035 3.40621 2.16769 3.65681 2.17 3.909Z" fill="white"/>
</svg>
