<svg width="6" height="7" viewBox="0 0 6 7" fill="none" xmlns="http://www.w3.org/2000/svg">
<path d="M0.656998 0.270005H2.88699C3.16726 0.268896 3.44685 0.297725 3.72099 0.356003C3.96725 0.406011 4.20174 0.502386 4.41199 0.64C4.61243 0.775948 4.77488 0.960776 4.88399 1.177C5.00863 1.43967 5.06831 1.72845 5.058 2.01901C5.06918 2.39043 4.95778 2.7552 4.741 3.057C4.51375 3.35061 4.18141 3.54457 3.814 3.598L5.278 6.03H3.758L2.55299 3.73H1.922V6.03H0.651993L0.656998 0.270005ZM1.92699 2.654H2.67499C2.78899 2.654 2.90999 2.654 3.03699 2.641C3.15535 2.635 3.27207 2.61072 3.383 2.569C3.48414 2.52936 3.57261 2.46299 3.63899 2.377C3.71227 2.26959 3.74748 2.14075 3.739 2.011C3.74754 1.89822 3.72186 1.78549 3.6653 1.68754C3.60874 1.58959 3.52394 1.51098 3.422 1.462C3.32178 1.41386 3.21435 1.38245 3.10399 1.369C2.98839 1.35243 2.87177 1.34408 2.75499 1.344H1.92499L1.92699 2.654Z" fill="white"/>
</svg>
