<svg width="14" height="8" viewBox="0 0 14 8" fill="none" xmlns="http://www.w3.org/2000/svg">
<path d="M1.902 7.305C1.83883 7.30508 1.77687 7.28777 1.72289 7.25496C1.66892 7.22215 1.62501 7.17511 1.596 7.119L0.457007 4.952C0.433871 4.91167 0.4191 4.86708 0.413581 4.82091C0.408061 4.77474 0.411896 4.72793 0.424872 4.68328C0.437849 4.63863 0.459691 4.59705 0.489097 4.56103C0.518502 4.52501 0.554864 4.49529 0.596015 4.47364C0.637166 4.45199 0.682258 4.43885 0.728599 4.43502C0.774939 4.43118 0.821581 4.43673 0.865729 4.45132C0.909878 4.46592 0.950632 4.48926 0.985557 4.51996C1.02048 4.55066 1.04887 4.58808 1.06901 4.62999L1.823 6.063L3.51 0.756001C3.53212 0.685812 3.57604 0.624502 3.63538 0.580982C3.69473 0.537463 3.76641 0.513996 3.84 0.513996H13.228C13.2751 0.511467 13.3222 0.518554 13.3664 0.534825C13.4106 0.551095 13.4511 0.576207 13.4853 0.608631C13.5195 0.641056 13.5468 0.680113 13.5654 0.723416C13.584 0.766718 13.5936 0.813364 13.5936 0.860501C13.5936 0.907637 13.584 0.954275 13.5654 0.997578C13.5468 1.04088 13.5195 1.07994 13.4853 1.11236C13.4511 1.14479 13.4106 1.1699 13.3664 1.18617C13.3222 1.20244 13.2751 1.20953 13.228 1.207H4.09299L2.232 7.063C2.21112 7.12815 2.17155 7.18573 2.11822 7.22858C2.06488 7.27143 2.00012 7.29765 1.932 7.304L1.902 7.305Z" fill="white"/>
</svg>
