<svg width="6" height="9" viewBox="0 0 6 9" fill="none" xmlns="http://www.w3.org/2000/svg">
<path d="M2.922 3.006C3.008 2.984 3.094 2.966 3.18 2.951C3.26834 2.93723 3.35759 2.93021 3.447 2.93C3.78224 2.92546 4.11471 2.99119 4.42299 3.12299C4.70614 3.24509 4.96135 3.42375 5.17299 3.648C5.38441 3.87643 5.54827 4.14463 5.655 4.437C5.77059 4.74691 5.82886 5.07524 5.827 5.406C5.83293 5.76083 5.76281 6.11283 5.62137 6.43832C5.47993 6.7638 5.27044 7.05523 5.00699 7.29301C4.7448 7.52718 4.43895 7.70729 4.107 7.82301C3.3872 8.07365 2.6038 8.07365 1.88399 7.82301C1.5521 7.70714 1.24629 7.52705 0.983999 7.29301C0.720087 7.0556 0.510287 6.76424 0.36881 6.43867C0.227333 6.1131 0.157492 5.76092 0.164007 5.406C0.161897 5.15568 0.187042 4.90588 0.239004 4.661C0.287541 4.4434 0.354445 4.23029 0.439001 4.02399C0.520407 3.8255 0.617029 3.63361 0.728002 3.45C0.840002 3.268 0.956001 3.081 1.077 2.887L2.739 0.293007H4.7L2.922 3.006ZM4.22201 5.34299C4.22682 5.18537 4.19942 5.02842 4.14147 4.88175C4.08352 4.73508 3.99625 4.60177 3.885 4.49C3.64127 4.27302 3.32632 4.15314 3.00001 4.15314C2.67369 4.15314 2.35873 4.27302 2.115 4.49C1.89975 4.7207 1.78005 5.02448 1.78005 5.34C1.78005 5.65553 1.89975 5.95929 2.115 6.18999C2.35873 6.40697 2.67369 6.52685 3.00001 6.52685C3.32632 6.52685 3.64127 6.40697 3.885 6.18999C3.99555 6.07896 4.08243 5.94665 4.14036 5.80106C4.19828 5.65547 4.22606 5.49963 4.22201 5.34299Z" fill="white"/>
</svg>
