<svg width="6" height="9" viewBox="0 0 6 9" fill="none" xmlns="http://www.w3.org/2000/svg">
<path d="M2.23999 3.986H2.76599C2.91291 3.98604 3.05963 3.97535 3.20499 3.954C3.3416 3.93458 3.47407 3.89268 3.597 3.82999C3.71283 3.77109 3.81085 3.68239 3.881 3.573C3.95735 3.44155 3.99416 3.29085 3.987 3.139C3.98891 3.02974 3.96521 2.92155 3.9178 2.82309C3.87039 2.72463 3.80059 2.63864 3.71399 2.57199C3.52496 2.41879 3.28719 2.33859 3.04399 2.346C2.8292 2.33735 2.618 2.40307 2.44603 2.53205C2.27406 2.66103 2.15183 2.84538 2.09999 3.054L0.332001 2.689C0.406305 2.38646 0.53727 2.10076 0.717987 1.847C0.882842 1.62143 1.09046 1.43046 1.32899 1.28499C1.57339 1.13884 1.83933 1.0322 2.11699 0.968998C2.41744 0.900428 2.72482 0.866865 3.03299 0.868992C3.36061 0.867963 3.68699 0.909307 4.004 0.991993C4.29908 1.06735 4.57706 1.19836 4.823 1.37799C5.05854 1.55205 5.2514 1.7774 5.38699 2.03699C5.53228 2.33002 5.60401 2.65402 5.59599 2.98099C5.60607 3.36834 5.48912 3.74834 5.263 4.06299C5.02729 4.3719 4.68242 4.57904 4.299 4.642V4.674C4.51103 4.69684 4.71566 4.76505 4.89899 4.874C5.07064 4.97847 5.22123 5.11413 5.34299 5.27399C5.46744 5.43407 5.56196 5.61532 5.62199 5.80899C5.68848 6.0134 5.72224 6.22704 5.722 6.44199C5.73022 6.78806 5.6551 7.13103 5.50299 7.44199C5.36237 7.72094 5.16114 7.96491 4.914 8.15599C4.65459 8.35131 4.35983 8.49461 4.04599 8.57799C3.70217 8.67345 3.34681 8.7209 2.98999 8.719C2.37201 8.73586 1.76262 8.57143 1.237 8.24599C0.984219 8.07499 0.768175 7.85519 0.601593 7.59948C0.435012 7.34376 0.321256 7.05731 0.266998 6.75699L1.961 6.357C2.00368 6.60358 2.1259 6.82941 2.30899 7C2.52958 7.17266 2.80665 7.25681 3.086 7.236C3.22743 7.24769 3.36973 7.22942 3.50362 7.18238C3.6375 7.13533 3.75996 7.06059 3.86299 6.963C4.03389 6.77076 4.12414 6.52006 4.11499 6.263C4.13028 6.10069 4.09125 5.93788 4.00401 5.80014C3.91678 5.66241 3.78628 5.55755 3.633 5.502C3.47831 5.4433 3.31527 5.40954 3.14999 5.402C2.97199 5.393 2.793 5.387 2.614 5.387H2.239L2.23999 3.986Z" fill="white"/>
</svg>
