<svg width="6" height="9" viewBox="0 0 6 9" fill="none" xmlns="http://www.w3.org/2000/svg">
<path d="M0.521988 6.945L3.47 4.297C3.62888 4.15226 3.77913 3.99833 3.92 3.83601C4.0674 3.67118 4.14767 3.4571 4.14499 3.236C4.15003 3.12033 4.12744 3.00512 4.0791 2.89991C4.03076 2.7947 3.95804 2.70252 3.86699 2.631C3.68081 2.48459 3.44982 2.40688 3.213 2.411C3.08309 2.40415 2.95323 2.42555 2.83238 2.47372C2.71154 2.52188 2.60258 2.59566 2.513 2.68999C2.34309 2.87972 2.2429 3.12169 2.22899 3.376L0.620987 3.259C0.633439 2.90429 0.7171 2.55572 0.866989 2.234C1.00267 1.95502 1.19671 1.70844 1.43599 1.51099C1.68168 1.31275 1.96408 1.16493 2.267 1.076C2.6027 0.97736 2.95112 0.928839 3.30099 0.931999C3.62818 0.929654 3.95374 0.978232 4.26599 1.076C4.55207 1.16679 4.8177 1.31251 5.04799 1.505C5.27321 1.70027 5.45076 1.94451 5.567 2.219C5.69845 2.53566 5.76246 2.87623 5.75499 3.219C5.75727 3.44086 5.73243 3.66217 5.681 3.878C5.63421 4.06476 5.56399 4.24485 5.472 4.41399C5.38309 4.57358 5.27677 4.72283 5.155 4.859C5.02887 4.99935 4.89534 5.13287 4.75499 5.259L2.45499 7.242H5.81999V8.656H0.521988V6.945Z" fill="white"/>
</svg>
