<svg width="7" height="9" viewBox="0 0 7 9" fill="none" xmlns="http://www.w3.org/2000/svg">
<path d="M0.938995 4.50201C0.93975 4.04159 0.981238 3.58213 1.06299 3.12901C1.13783 2.68615 1.28622 2.25892 1.502 1.86501C1.70943 1.49001 2.00576 1.17168 2.36499 0.938004C2.79149 0.701879 3.271 0.578003 3.7585 0.578003C4.246 0.578003 4.7255 0.701879 5.15199 0.938004C5.51146 1.1714 5.80787 1.48979 6.015 1.86501C6.23067 2.25906 6.37934 2.68622 6.45499 3.12901C6.619 4.03633 6.619 4.96569 6.45499 5.873C6.37951 6.31616 6.23082 6.74368 6.015 7.13802C5.8076 7.51331 5.51126 7.83195 5.15199 8.06601C4.72529 8.3015 4.24587 8.42502 3.7585 8.42502C3.27113 8.42502 2.79169 8.3015 2.36499 8.06601C2.00596 7.83167 1.70969 7.51309 1.502 7.13802C1.28606 6.74382 1.13766 6.31622 1.06299 5.873C0.9812 5.42057 0.939711 4.96178 0.938995 4.50201ZM2.54799 4.50201C2.54799 4.70201 2.55599 4.94101 2.57399 5.21901C2.59117 5.49039 2.63984 5.75886 2.71899 6.01901C2.78938 6.26035 2.91193 6.48327 3.07799 6.67201C3.26152 6.84427 3.50379 6.94014 3.75549 6.94014C4.0072 6.94014 4.24946 6.84427 4.433 6.67201C4.60301 6.48497 4.72818 6.26165 4.799 6.01901C4.87735 5.75871 4.92566 5.49029 4.94299 5.21901C4.96099 4.94101 4.97099 4.70201 4.97099 4.50201C4.97099 4.30201 4.96099 4.06301 4.94299 3.78401C4.92583 3.51271 4.87751 3.24427 4.799 2.98401C4.72818 2.74107 4.60303 2.51742 4.433 2.33C4.24969 2.1573 4.00734 2.06113 3.75549 2.06113C3.50364 2.06113 3.2613 2.1573 3.07799 2.33C2.91194 2.51913 2.7894 2.74238 2.71899 2.98401C2.63968 3.24412 2.59101 3.51261 2.57399 3.78401C2.55599 4.06301 2.54799 4.30201 2.54799 4.50201Z" fill="white"/>
</svg>
